<svg width="18" height="18" viewBox="0 0 18 18" fill="none" xmlns="http://www.w3.org/2000/svg">
<path d="M13.25 6.5C13.25 5.30653 12.7759 4.16193 11.932 3.31802C11.0881 2.47411 9.94347 2 8.75 2C7.55653 2 6.41193 2.47411 5.56802 3.31802C4.72411 4.16193 4.25 5.30653 4.25 6.5C4.25 11.75 2 13.25 2 13.25H15.5C15.5 13.25 13.25 11.75 13.25 6.5Z" stroke="white" stroke-linecap="round" stroke-linejoin="round"/>
<path d="M10.0481 16.25C9.91627 16.4773 9.72701 16.666 9.49929 16.7971C9.27158 16.9283 9.01341 16.9973 8.75062 16.9973C8.48784 16.9973 8.22967 16.9283 8.00196 16.7971C7.77424 16.666 7.58498 16.4773 7.45312 16.25" stroke="white" stroke-linecap="round" stroke-linejoin="round"/>
</svg>
