<svg width="109" height="109" viewBox="0 0 109 109" fill="none" xmlns="http://www.w3.org/2000/svg">
<path d="M2.32617 2.4502H33.6299C39.1647 2.4502 44.4729 4.88745 48.3866 9.22579C52.3003 13.5641 54.499 19.4482 54.499 25.5835V106.55C54.499 101.949 52.85 97.5356 49.9147 94.2819C46.9794 91.0281 42.9983 89.2002 38.8472 89.2002H2.32617V2.4502Z" stroke="#BDBDBD" stroke-width="4" stroke-linecap="round" stroke-linejoin="round"/>
<path d="M106.673 2.4502H75.3691C69.8343 2.4502 64.5262 4.88745 60.6124 9.22579C56.6987 13.5641 54.5 19.4482 54.5 25.5835V106.55C54.5 101.949 56.149 97.5356 59.0843 94.2819C62.0196 91.0281 66.0007 89.2002 70.1519 89.2002H106.673V2.4502Z" stroke="#BDBDBD" stroke-width="4" stroke-linecap="round" stroke-linejoin="round"/>
</svg>
