<svg width="18" height="18" viewBox="0 0 18 18" fill="none" xmlns="http://www.w3.org/2000/svg">
<path d="M6 7L4 9L6 11" stroke="white" stroke-linecap="round" stroke-linejoin="round"/>
<path d="M12 11L14 9L12 7" stroke="white" stroke-linecap="round" stroke-linejoin="round"/>
<path d="M7.55279 10.7764C7.42929 11.0234 7.5294 11.3237 7.77639 11.4472C8.02338 11.5707 8.32372 11.4706 8.44721 11.2236L7.55279 10.7764ZM10.4472 7.22361C10.5707 6.97662 10.4706 6.67628 10.2236 6.55279C9.97662 6.42929 9.67628 6.5294 9.55279 6.77639L10.4472 7.22361ZM8.44721 11.2236L10.4472 7.22361L9.55279 6.77639L7.55279 10.7764L8.44721 11.2236Z" fill="white"/>
<path d="M13.9737 2H3.71053C2.76583 2 2 2.76583 2 3.71053V13.9737C2 14.9184 2.76583 15.6842 3.71053 15.6842H13.9737C14.9184 15.6842 15.6842 14.9184 15.6842 13.9737V3.71053C15.6842 2.76583 14.9184 2 13.9737 2Z" stroke="white" stroke-linecap="round" stroke-linejoin="round"/>
</svg>
