<svg width="18" height="18" viewBox="0 0 18 18" fill="none" xmlns="http://www.w3.org/2000/svg">
<path d="M2.63672 3.27246H6.4549C7.13 3.27246 7.77744 3.54064 8.25481 4.01801C8.73217 4.49537 9.00036 5.14282 9.00036 5.81792V14.727C9.00036 14.2207 8.79922 13.7351 8.4412 13.3771C8.08317 13.0191 7.59759 12.8179 7.09126 12.8179H2.63672V3.27246Z" stroke="white" stroke-linecap="round" stroke-linejoin="round"/>
<path d="M15.3636 3.27246H11.5455C10.8704 3.27246 10.2229 3.54064 9.74555 4.01801C9.26818 4.49537 9 5.14282 9 5.81792V14.727C9 14.2207 9.20114 13.7351 9.55916 13.3771C9.91718 13.0191 10.4028 12.8179 10.9091 12.8179H15.3636V3.27246Z" stroke="white" stroke-linecap="round" stroke-linejoin="round"/>
</svg>
