<svg width="18" height="18" viewBox="0 0 18 18" fill="none" xmlns="http://www.w3.org/2000/svg">
<path d="M9 11.25C10.2426 11.25 11.25 10.2426 11.25 9C11.25 7.75736 10.2426 6.75 9 6.75C7.75736 6.75 6.75 7.75736 6.75 9C6.75 10.2426 7.75736 11.25 9 11.25Z" stroke="white" stroke-linecap="round" stroke-linejoin="round"/>
<path d="M13.9537 11.0081C13.8646 11.21 13.838 11.434 13.8774 11.6512C13.9168 11.8683 14.0203 12.0687 14.1746 12.2265L14.2148 12.2666C14.3393 12.391 14.438 12.5386 14.5054 12.7012C14.5728 12.8637 14.6075 13.0379 14.6075 13.2139C14.6075 13.3898 14.5728 13.564 14.5054 13.7266C14.438 13.8891 14.3393 14.0368 14.2148 14.1611C14.0905 14.2856 13.9428 14.3843 13.7803 14.4517C13.6177 14.5191 13.4435 14.5538 13.2676 14.5538C13.0916 14.5538 12.9174 14.5191 12.7549 14.4517C12.5923 14.3843 12.4447 14.2856 12.3203 14.1611L12.2802 14.1209C12.1224 13.9666 11.922 13.8631 11.7049 13.8237C11.4877 13.7843 11.2637 13.8109 11.0618 13.9C10.8638 13.9849 10.695 14.1258 10.576 14.3054C10.4571 14.485 10.3933 14.6954 10.3924 14.9109V15.0247C10.3924 15.3797 10.2513 15.7203 10.0003 15.9714C9.74918 16.2224 9.40864 16.3635 9.05356 16.3635C8.69848 16.3635 8.35794 16.2224 8.10685 15.9714C7.85577 15.7203 7.71472 15.3797 7.71472 15.0247V14.9644C7.70953 14.7428 7.63781 14.5279 7.50888 14.3477C7.37994 14.1674 7.19975 14.0301 6.99174 13.9536C6.78983 13.8645 6.56586 13.8379 6.3487 13.8773C6.13154 13.9166 5.93116 14.0202 5.77339 14.1745L5.73323 14.2147C5.60889 14.3391 5.46123 14.4379 5.29869 14.5053C5.13616 14.5726 4.96194 14.6073 4.786 14.6073C4.61005 14.6073 4.43583 14.5726 4.2733 14.5053C4.11077 14.4379 3.96311 14.3391 3.83876 14.2147C3.71428 14.0903 3.61553 13.9427 3.54816 13.7801C3.48078 13.6176 3.4461 13.4434 3.4461 13.2674C3.4461 13.0915 3.48078 12.9173 3.54816 12.7547C3.61553 12.5922 3.71428 12.4445 3.83876 12.3202L3.87893 12.28C4.03326 12.1223 4.13678 11.9219 4.17616 11.7047C4.21553 11.4876 4.18895 11.2636 4.09984 11.0617C4.01498 10.8637 3.87408 10.6948 3.69448 10.5759C3.51488 10.457 3.30442 10.3931 3.08901 10.3923H2.97521C2.62013 10.3923 2.27959 10.2512 2.02851 10.0001C1.77742 9.74904 1.63637 9.4085 1.63637 9.05342C1.63637 8.69834 1.77742 8.3578 2.02851 8.10672C2.27959 7.85563 2.62013 7.71458 2.97521 7.71458H3.03546C3.25703 7.7094 3.47192 7.63767 3.6522 7.50874C3.83247 7.3798 3.96978 7.19962 4.04629 6.9916C4.1354 6.78969 4.16198 6.56572 4.1226 6.34856C4.08323 6.13141 3.9797 5.93102 3.82538 5.77326L3.78521 5.73309C3.66073 5.60875 3.56198 5.46109 3.4946 5.29856C3.42723 5.13602 3.39255 4.9618 3.39255 4.78586C3.39255 4.60991 3.42723 4.43569 3.4946 4.27316C3.56198 4.11063 3.66073 3.96297 3.78521 3.83863C3.90955 3.71415 4.05721 3.61539 4.21975 3.54802C4.38228 3.48064 4.5565 3.44596 4.73244 3.44596C4.90839 3.44596 5.08261 3.48064 5.24514 3.54802C5.40767 3.61539 5.55533 3.71415 5.67967 3.83863L5.71984 3.87879C5.87761 4.03312 6.07799 4.13664 6.29515 4.17602C6.5123 4.21539 6.73628 4.18881 6.93819 4.0997H6.99174C7.18973 4.01484 7.35859 3.87394 7.47753 3.69434C7.59647 3.51474 7.6603 3.30429 7.66116 3.08888V2.97507C7.66116 2.61999 7.80222 2.27945 8.0533 2.02837C8.30438 1.77729 8.64492 1.63623 9 1.63623C9.35509 1.63623 9.69563 1.77729 9.94671 2.02837C10.1978 2.27945 10.3388 2.61999 10.3388 2.97507V3.03532C10.3397 3.25073 10.4035 3.46119 10.5225 3.64079C10.6414 3.82039 10.8103 3.96129 11.0083 4.04615C11.2102 4.13526 11.4342 4.16184 11.6513 4.12247C11.8685 4.08309 12.0688 3.97957 12.2266 3.82524L12.2668 3.78507C12.3911 3.66059 12.5388 3.56184 12.7013 3.49446C12.8638 3.42709 13.0381 3.39241 13.214 3.39241C13.39 3.39241 13.5642 3.42709 13.7267 3.49446C13.8892 3.56184 14.0369 3.66059 14.1612 3.78507C14.2857 3.90942 14.3845 4.05708 14.4519 4.21961C14.5192 4.38214 14.5539 4.55636 14.5539 4.73231C14.5539 4.90825 14.5192 5.08247 14.4519 5.245C14.3845 5.40754 14.2857 5.55519 14.1612 5.67954L14.1211 5.7197C13.9668 5.87747 13.8632 6.07785 13.8239 6.29501C13.7845 6.51217 13.8111 6.73614 13.9002 6.93805V6.9916C13.985 7.1896 14.1259 7.35846 14.3055 7.4774C14.4851 7.59634 14.6956 7.66017 14.911 7.66102H15.0248C15.3799 7.66102 15.7204 7.80208 15.9715 8.05316C16.2226 8.30424 16.3636 8.64478 16.3636 8.99987C16.3636 9.35495 16.2226 9.69549 15.9715 9.94657C15.7204 10.1977 15.3799 10.3387 15.0248 10.3387H14.9646C14.7491 10.3396 14.5387 10.4034 14.3591 10.5223C14.1795 10.6413 14.0386 10.8101 13.9537 11.0081V11.0081Z" stroke="white" stroke-linecap="round" stroke-linejoin="round"/>
</svg>
